<svg xmlns="http://www.w3.org/2000/svg" viewBox="0 0 40.720998 39.722625" height="39.723" width="40.721">
	<path d="M20.36 0C9.117 0 0 9.116 0 20.362c0 8.995 5.834 16.628 13.925 19.322 1.02.186 1.39-.443 1.39-.983 0-.48-.018-1.76-.028-3.46-5.663 1.23-6.858-2.73-6.858-2.73-.93-2.352-2.265-2.98-2.265-2.98-1.848-1.26.14-1.236.14-1.236 2.044.144 3.12 2.1 3.12 2.1 1.815 3.11 4.765 2.212 5.925 1.69.186-1.315.713-2.212 1.294-2.72-4.52-.516-9.275-2.262-9.275-10.065 0-2.224.792-4.04 2.094-5.464-.21-.515-.91-2.585.2-5.39 0 0 1.71-.547 5.6 2.087 1.623-.45 3.365-.675 5.096-.684 1.73.01 3.473.233 5.1.684C29.346 7.9 31.053 8.45 31.053 8.45c1.11 2.803.412 4.873.203 5.39 1.305 1.42 2.093 3.24 2.093 5.46 0 7.824-4.76 9.545-9.298 10.05.73.63 1.38 1.87 1.38 3.77 0 2.72-.024 4.92-.024 5.585 0 .546.366 1.18 1.4.98C34.892 36.987 40.72 29.36 40.72 20.367 40.724 9.117 31.607 0 20.36 0" fill="#1b1817" fill-rule="evenodd"/>
</svg>
