<svg xmlns="http://www.w3.org/2000/svg" viewBox="0 0 341.73749 277.72501" height="277.725" width="341.737">
	<path d="M341.738 32.88c-12.574 5.575-26.087 9.344-40.27 11.04 14.477-8.68 25.593-22.42 30.828-38.79-13.546 8.034-28.55 13.87-44.52 17.014C274.985 8.518 256.763.004 236.598.004c-38.723 0-70.115 31.39-70.115 70.11 0 5.494.62 10.845 1.816 15.976-58.268-2.924-109.93-30.836-144.51-73.254-6.035 10.355-9.492 22.398-9.492 35.248 0 24.324 12.378 45.784 31.19 58.356-11.492-.364-22.303-3.517-31.756-8.77-.005.294-.006.586-.006.883 0 33.97 24.167 62.307 56.24 68.747-5.883 1.602-12.077 2.46-18.47 2.46-4.52 0-8.91-.44-13.19-1.26 8.92 27.856 34.813 48.126 65.493 48.692-23.996 18.804-54.227 30.013-87.075 30.013-5.66 0-11.24-.33-16.725-.978 31.028 19.892 67.88 31.498 107.475 31.498 128.96 0 199.48-106.834 199.48-199.482 0-3.04-.068-6.064-.203-9.07 13.698-9.885 25.585-22.234 34.985-36.294" fill="#1b1817"/>
</svg>
